<svg width="24" height="24" xmlns="http://www.w3.org/2000/svg">

 <g>
  <title>background</title>
  <rect fill="none" id="canvas_background" height="26" width="26" y="-1" x="-1"/>
 </g>
 <g>
  <title>Layer 1</title>
  <path fill="#a9a9a9" id="svg_1" d="m7.5,2a2,2 0 0 1 2,2a2,2 0 0 1 -2,2a2,2 0 0 1 -2,-2a2,2 0 0 1 2,-2m-1.5,5l3,0a2,2 0 0 1 2,2l0,5.5l-1.5,0l0,7.5l-4,0l0,-7.5l-1.5,0l0,-5.5a2,2 0 0 1 2,-2m10.5,-5a2,2 0 0 1 2,2a2,2 0 0 1 -2,2a2,2 0 0 1 -2,-2a2,2 0 0 1 2,-2m-1.5,20l0,-6l-3,0l2.59,-7.59c0.25,-0.82 1.01,-1.41 1.91,-1.41c0.9,0 1.66,0.59 1.91,1.41l2.59,7.59l-3,0l0,6l-3,0z"/>
 </g>
</svg>