<svg width="24" height="24" xmlns="http://www.w3.org/2000/svg">
 <g>
  <title>background</title>
  <rect x="-1" y="-1" width="4.696621" height="4.696621" id="canvas_background" fill="none"/>
 </g>

 <g>
  <title>Layer 1</title>
  <path fill="#a9a9a9" d="m20,11l3,0l0,2l-3,0l0,-2m-19,0l3,0l0,2l-3,0l0,-2m12,-10l0,3l-2,0l0,-3l2,0m-8.08,2.5l2.13,2.14l-1.42,1.41l-2.13,-2.12l1.42,-1.43m12.03,2.13l2.12,-2.13l1.43,1.43l-2.13,2.12l-1.42,-1.42m-4.95,0.37a6,6 0 0 1 6,6c0,2.22 -1.21,4.16 -3,5.2l0,1.8a1,1 0 0 1 -1,1l-4,0a1,1 0 0 1 -1,-1l0,-1.8c-1.79,-1.04 -3,-2.98 -3,-5.2a6,6 0 0 1 6,-6m2,15l0,1a1,1 0 0 1 -1,1l-2,0a1,1 0 0 1 -1,-1l0,-1l4,0m-3,-3l2,0l0,-2.13c1.73,-0.44 3,-2.01 3,-3.87a4,4 0 0 0 -4,-4a4,4 0 0 0 -4,4c0,1.86 1.27,3.43 3,3.87l0,2.13z" id="svg_1"/>
 </g>
</svg>